:SAMPLES-PER-SECOND 30
:FULLY-SPECIFIED
:DEGREES
163
root  14.8863 38.0052 5.77674 -157.096 -78.2825 149.497
RightUpLeg  -15.1826 -10.9855 -6.39877
RightLeg  -0.535727 -26.6091 4.42108
RightFoot  -1.04081 0.0795298 -0.637654
RightToes  -6.40286e-010 0 -3.6325e-017
Spine  2.41243 -1.61281 -7.27502
Spine1  8.8919 -2.23527 1.49834
HEad  -12.768 -38.59 5.40055
LeftShoulder1  -0.508301 4.83315 -32.0799
LeftArm  5.01366 2.70829 -38.8551
LeftForeArm  20.8526 -27.7627 -4.859
LeftHand  0.02255 6.76368 4.41113
RightShoulder  -0.990446 -6.26079 29.3726
RightArm  24.3832 -16.5131 45.9961
RightForeArm  18.2992 13.8294 7.27411
RightHand  -0.112165 4.91176 -1.56214
LeftUpLeg  17.8736 6.93407 -7.34193
LeftLeg  10.769 6.99663 0.252329
LeftFoot  -19.6859 0.371964 3.47544
LeftToes  1.32783e-010 1.73515e-011 1.59258e-011
164
root  13.6195 37.9535 5.60619 -164.807 -77.9046 157.806
RightUpLeg  -16.8616 -11.1392 -4.91745
RightLeg  4.49098 -26.3491 3.09653
RightFoot  3.07549 0.88325 -6.91344
RightToes  -6.40286e-010 0 -3.6325e-017
Spine  1.65492 -1.7458 -4.36022
Spine1  8.7387 -2.46252 1.88658
HEad  -11.8358 -39.8706 4.83766
LeftShoulder1  -0.553186 4.92981 -32.6472
LeftArm  6.5751 3.84571 -39.2635
LeftForeArm  21.2155 -26.4103 -4.53768
LeftHand  -0.0142427 6.06001 2.78486
RightShoulder  -1.02529 -6.3354 29.6538
RightArm  21.8199 -14.8981 44.8229
RightForeArm  17.2083 14.1621 6.64748
RightHand  -0.119497 5.33968 -1.60697
LeftUpLeg  19.2915 7.9909 -5.4717
LeftLeg  11.3839 6.26166 0.469067
LeftFoot  -20.2188 0.235696 1.48081
LeftToes  1.32783e-010 1.73515e-011 1.59258e-011
165
root  12.2929 37.8885 5.40944 -175.059 -75.9198 168.348
RightUpLeg  -18.2822 -11.8585 -2.40329
RightLeg  9.86414 -21.908 1.27715
RightFoot  5.98001 1.21748 -7.73845
RightToes  -6.40286e-010 0 -3.6325e-017
Spine  1.23394 -1.47967 -0.180241
Spine1  8.40281 -1.86214 0.84994
HEad  -10.9632 -39.6349 4.05361
LeftShoulder1  -0.543022 4.91003 -32.4491
LeftArm  8.21524 5.55116 -40.4493
LeftForeArm  20.2869 -24.8077 -4.23556
LeftHand  -0.00836855 6.27516 2.99667
RightShoulder  -1.1038 -6.49864 30.3301
RightArm  20.0677 -11.9966 43.0519
RightForeArm  15.0326 14.4604 6.21861
RightHand  -0.0973045 5.6212 -1.34277
LeftUpLeg  20.1924 10.5877 -2.8051
LeftLeg  14.2835 4.61811 0.890435
LeftFoot  -20.3553 -0.0295964 -1.86888
LeftToes  1.32783e-010 1.73515e-011 1.59258e-011
166
root  11.0738 37.8261 5.25181 177.382 -72.3016 176.566
RightUpLeg  -20.2014 -14.6939 1.81952
RightLeg  15.1611 -14.8178 -0.838782
RightFoot  4.34428 1.21049 -8.54415
RightToes  -6.40286e-010 0 -3.6325e-017
Spine  1.52554 -1.15982 4.29656
Spine1  7.44951 -1.09523 -0.304962
HEad  -10.4026 -39.3641 3.01354
LeftShoulder1  -0.60926 5.05767 -33.0612
LeftArm  8.67917 7.62707 -40.9784
LeftForeArm  20.2293 -23.3581 -3.9846
LeftHand  -0.011528 6.88792 1.83847
RightShoulder  -1.06665 -6.41295 30.1202
RightArm  17.1767 -8.07355 42.1054
RightForeArm  13.3355 14.8142 5.62864
RightHand  -0.160907 6.06173 -1.96527
LeftUpLeg  18.3388 13.6126 -0.410557
LeftLeg  21.5264 2.97611 1.67889
LeftFoot  -19.272 -0.386086 -7.4107
LeftToes  1.32783e-010 1.73515e-011 1.59258e-011
167
root  10.0204 37.7613 5.03912 173.816 -68.3992 -179.682
RightUpLeg  -20.5463 -13.2494 4.1509
RightLeg  18.212 -12.043 -1.80903
RightFoot  3.8166 1.32702 -9.75056
RightToes  -6.40286e-010 0 -3.6325e-017
Spine  2.68211 -1.0553 6.36129
Spine1  6.92301 -0.796416 0.328589
HEad  -10.0847 -38.0292 3.2839
LeftShoulder1  -0.49735 4.78402 -32.6889
LeftArm  7.26146 10.5436 -42.2365
LeftForeArm  21.1548 -22.3226 -3.99631
LeftHand  -0.0234653 7.5806 0.891233
RightShoulder  -0.962403 -6.17252 29.5006
RightArm  14.176 -3.4641 41.8834
RightForeArm  10.7585 15.9667 4.94337
RightHand  -0.209114 6.8873 -2.32409
LeftUpLeg  14.4603 15.8398 1.69255
LeftLeg  32.2348 1.83633 1.62361
LeftFoot  -14.0775 -0.195423 -13.5499
LeftToes  1.32783e-010 1.73515e-011 1.59258e-011
168
root  9.10886 37.7011 4.85855 171.521 -65.9757 -176.927
RightUpLeg  -20.6441 -12.2443 5.56567
RightLeg  20.6139 -10.7964 -2.05568
RightFoot  2.4866 1.27811 -10.3524
RightToes  -6.40286e-010 0 -3.6325e-017
Spine  4.22075 -1.4606 7.58406
Spine1  5.96827 -1.11614 1.48257
HEad  -9.92274 -36.9182 3.37467
LeftShoulder1  -0.36698 4.46177 -32.1831
LeftArm  7.5474 12.3531 -43.2686
LeftForeArm  21.3332 -21.5508 -4.18443
LeftHand  -0.0407167 7.81407 0.0247962
RightShoulder  -0.93167 -6.13685 28.8204
RightArm  10.9381 0.747691 41.51
RightForeArm  6.4528 19.0473 4.36137
RightHand  -0.351041 7.64359 -3.47652
LeftUpLeg  7.04347 15.6937 2.686
LeftLeg  45.7742 1.95826 2.63585
LeftFoot  -2.29984 0.898768 -13.361
LeftToes  1.32783e-010 1.73515e-011 1.59258e-011
169
root  8.22617 37.6066 4.79385 168.986 -63.1596 -173.988
RightUpLeg  -20.6161 -11.4628 7.30046
RightLeg  22.8423 -9.10812 -2.32875
RightFoot  0.831443 1.0711 -9.9546
RightToes  -6.40286e-010 0 -3.6325e-017
Spine  5.7901 -1.70497 10.4695
Spine1  5.45329 -0.925276 0.984461
HEad  -10.4615 -36.5317 3.25551
LeftShoulder1  -0.338468 4.39049 -32.0389
LeftArm  9.08685 12.2486 -43.926
LeftForeArm  22.3705 -20.9858 -4.39144
LeftHand  -0.0426516 7.06973 -0.187208
RightShoulder  -0.860062 -5.96109 28.388
RightArm  7.52415 5.69699 40.4768
RightForeArm  2.74677 22.6542 4.68225
RightHand  -0.529145 8.23842 -4.88123
LeftUpLeg  -0.97442 15.0338 3.23881
LeftLeg  57.7444 1.82316 3.51976
LeftFoot  7.7408 0.956758 -5.51525
LeftToes  1.32783e-010 1.73515e-011 1.59258e-011
170
root  7.34608 37.6198 4.76856 167.959 -59.7916 -173.13
RightUpLeg  -19.5421 -9.93024 8.08093
RightLeg  24.0428 -7.51017 -2.32129
RightFoot  -0.544357 0.890906 -9.43548
RightToes  -6.40286e-010 0 -3.6325e-017
Spine  7.37101 -1.91694 12.6612
Spine1  5.53876 -0.625922 0.0206455
HEad  -11.4944 -35.5915 4.45346
LeftShoulder1  -0.397373 4.54363 -32.0737
LeftArm  9.8963 11.4809 -44.4084
LeftForeArm  23.4219 -20.6873 -4.51574
LeftHand  -0.0196577 6.98185 1.18898
RightShoulder  -0.638183 -5.35308 27.8206
RightArm  4.54788 11.5055 39.7202
RightForeArm  2.57915 25.1928 5.26237
RightHand  -0.57019 8.87226 -5.01352
LeftUpLeg  -6.84603 13.8827 3.52224
LeftLeg  64.8517 0.238539 1.24605
LeftFoot  3.54912 0.662716 -5.25111
LeftToes  1.32783e-010 1.73515e-011 1.59258e-011
171
root  6.48289 37.7331 4.7659 168.232 -56.311 -173.972
RightUpLeg  -17.8763 -8.26223 7.75695
RightLeg  24.4685 -5.88471 -1.88699
RightFoot  -1.67892 0.742887 -8.89841
RightToes  -6.40286e-010 0 -3.6325e-017
Spine  9.73293 -1.54245 14.0973
Spine1  4.94847 0.313673 -0.937017
HEad  -12.0583 -35.8587 4.86295
LeftShoulder1  -0.295563 4.28121 -31.8929
LeftArm  10.2938 10.8082 -45.1193
LeftForeArm  23.6183 -21.1541 -4.3325
LeftHand  -0.024082 6.58881 1.07826
RightShoulder  -0.568548 -5.18196 27.0867
RightArm  2.02513 16.8863 38.4096
RightForeArm  1.66416 26.9669 5.71786
RightHand  -0.652732 9.93535 -5.33226
LeftUpLeg  -11.6979 11.6642 3.21241
LeftLeg  67.055 -0.609614 -0.817993
LeftFoot  1.33793 0.52191 -4.76089
LeftToes  1.32783e-010 1.73515e-011 1.59258e-011
172
root  5.59446 37.9261 4.76582 169.758 -52.4876 -175.653
RightUpLeg  -16.6777 -6.74276 6.96644
RightLeg  24.4411 -3.65696 -1.19516
RightFoot  -2.48883 0.625543 -8.2752
RightToes  -6.40286e-010 0 -3.6325e-017
Spine  10.9316 -1.01446 15.0037
Spine1  4.87736 1.24323 -2.23725
HEad  -12.3592 -35.9938 5.6471
LeftShoulder1  -0.24681 4.15693 -31.6583
LeftArm  10.3567 10.5417 -45.4079
LeftForeArm  22.1855 -22.384 -3.9688
LeftHand  -0.0232654 5.84637 1.63834
RightShoulder  -0.40671 -4.73959 25.9795
RightArm  -0.163352 22.7029 37.5525
RightForeArm  0.0324597 26.7307 5.75065
RightHand  -0.610437 9.527 -5.13531
LeftUpLeg  -15.7034 9.08946 2.94467
LeftLeg  64.6915 -0.764754 -1.12042
LeftFoot  -2.15063 0.326828 -3.88279
LeftToes  1.32783e-010 1.73515e-011 1.59258e-011
173
root  4.71016 38.1686 4.78131 171.757 -48.1821 -177.582
RightUpLeg  -15.7883 -5.31648 5.82076
RightLeg  23.9966 -0.994511 -0.278183
RightFoot  -3.03415 0.525851 -7.50799
RightToes  -6.40286e-010 0 -3.6325e-017
Spine  11.9595 -0.26009 15.8592
Spine1  4.47 2.46342 -4.15696
HEad  -12.2105 -35.849 6.47171
LeftShoulder1  -0.19902 4.03739 -31.1665
LeftArm  9.74879 10.2871 -45.4863
LeftForeArm  21.8807 -23.5743 -3.95167
LeftHand  -0.0244281 5.78841 1.57311
RightShoulder  -0.295521 -4.41765 25.1324
RightArm  -2.81632 28.3027 36.6661
RightForeArm  -3.70481 25.0448 5.55977
RightHand  -0.601084 10.3433 -4.8294
LeftUpLeg  -18.2134 6.48462 3.19581
LeftLeg  57.9302 -0.0167934 0.428434
LeftFoot  -4.48986 0.190593 -2.76571
LeftToes  1.32783e-010 1.73515e-011 1.59258e-011
174
root  3.89043 38.4479 4.78785 173.901 -43.4384 -179.608
RightUpLeg  -14.8634 -3.64662 4.40316
RightLeg  22.6327 2.05919 0.680234
RightFoot  -3.20397 0.475343 -6.97585
RightToes  -6.40286e-010 0 -3.6325e-017
Spine  13.3719 0.692622 16.3347
Spine1  3.50533 3.93911 -6.56371
HEad  -12.0332 -35.4754 6.233
LeftShoulder1  -0.135762 3.87083 -30.8868
LeftArm  8.8443 10.4324 -44.8002
LeftForeArm  22.5441 -25.516 -4.2637
LeftHand  -0.0231726 5.93758 1.51439
RightShoulder  -0.165799 -4.02137 24.1572
RightArm  -6.76933 33.1125 36.0639
RightForeArm  -9.04382 22.4806 5.17378
RightHand  -0.80335 12.323 -5.65689
LeftUpLeg  -18.7885 3.76258 3.93574
LeftLeg  47.0158 1.80288 2.44727
LeftFoot  -5.09531 0.164962 -2.46714
LeftToes  1.32783e-010 1.73515e-011 1.59258e-011
175
root  3.05286 38.7164 4.77781 175.61 -38.2914 178.876
RightUpLeg  -14.2456 -1.56741 3.15803
RightLeg  21.459 4.9106 1.33179
RightFoot  -3.04742 0.454767 -6.54332
RightToes  -6.40286e-010 0 -3.6325e-017
Spine  14.9097 1.64414 17.307
Spine1  2.58955 5.65104 -9.63433
HEad  -13.027 -35.3312 6.46655
LeftShoulder1  -0.083341 3.7293 -30.8031
LeftArm  7.72048 10.3343 -43.9651
LeftForeArm  22.9108 -26.8355 -4.54113
LeftHand  -0.0162376 6.29367 2.04253
RightShoulder  -0.0640018 -3.69468 23.2272
RightArm  -10.8519 37.2034 35.516
RightForeArm  -14.4038 20.0351 4.4656
RightHand  -0.952441 13.795 -6.16522
LeftUpLeg  -17.328 -0.561364 5.39166
LeftLeg  32.994 3.20519 2.62775
LeftFoot  -5.08098 0.159613 -2.38685
LeftToes  1.32783e-010 1.73515e-011 1.59258e-011
176
root  2.20351 38.8708 4.75629 177.044 -33.5515 178.237
RightUpLeg  -14.4908 0.886246 2.22407
RightLeg  20.9293 6.96877 1.84843
RightFoot  -3.25924 0.386374 -5.77373
RightToes  -6.40286e-010 0 -3.6325e-017
Spine  15.7509 2.26334 18.3373
Spine1  2.11766 6.92165 -12.3412
HEad  -14.1694 -34.5336 7.22509
LeftShoulder1  -0.029572 3.58487 -30.469
LeftArm  5.99419 10.9467 -43.2681
LeftForeArm  24.0792 -28.5293 -4.85534
LeftHand  -0.0145952 6.1163 2.49716
RightShoulder  0.0149525 -3.42559 22.4798
RightArm  -13.1763 41.4787 35.3261
RightForeArm  -17.5718 17.4935 3.35231
RightHand  -0.513859 12.9564 -3.68635
LeftUpLeg  -16.182 -8.07642 7.82021
LeftLeg  20.578 1.79577 1.13318
LeftFoot  -4.44487 0.183615 -2.59342
LeftToes  1.32783e-010 1.73515e-011 1.59258e-011
177
root  1.36464 38.8894 4.77485 177.746 -29.1591 178.012
RightUpLeg  -15.1787 4.87369 1.12386
RightLeg  21.8115 7.26629 2.37858
RightFoot  -3.94185 0.299181 -5.02225
RightToes  -6.40286e-010 0 -3.6325e-017
Spine  17.1523 2.63041 18.9714
Spine1  1.50606 7.84914 -14.154
HEad  -15.4959 -33.497 7.34717
LeftShoulder1  0.0144126 3.46391 -30.3869
LeftArm  4.79122 11.2345 -42.7122
LeftForeArm  24.1461 -29.2525 -5.01784
LeftHand  -0.0141491 6.03048 2.88007
RightShoulder  0.12829 -3.01911 21.5132
RightArm  -13.5816 45.5286 35.2096
RightForeArm  -19.1042 15.1144 2.49068
RightHand  -0.379814 12.2228 -2.92851
LeftUpLeg  -15.201 -12.9357 9.54388
LeftLeg  13.1092 -3.87428 -0.333964
LeftFoot  -1.88069 0.525466 -5.99764
LeftToes  1.32783e-010 1.73515e-011 1.59258e-011
